<svg width="1237" height="150" viewBox="0 0 1237 150" fill="none" xmlns="http://www.w3.org/2000/svg">
<g filter="url(#filter0_d_267_3)">
<path d="M4.4 140V-9.53674e-06H71.8C84.8667 -9.53674e-06 96.1333 2.13332 105.6 6.39999C115.2 10.6667 122.6 16.8 127.8 24.8C133 32.6667 135.6 42 135.6 52.8C135.6 63.6 133 72.9333 127.8 80.8C122.6 88.6667 115.2 94.8 105.6 99.2C96.1333 103.467 84.8667 105.6 71.8 105.6H30.6L51.6 85.4V140H4.4ZM51.6 90.6L30.6 69.2H68.8C75.3333 69.2 80.1333 67.7333 83.2 64.8C86.4 61.8667 88 57.8667 88 52.8C88 47.7333 86.4 43.7333 83.2 40.8C80.1333 37.8667 75.3333 36.4 68.8 36.4H30.6L51.6 15V90.6ZM151.633 140V30.6H194.633V63.6L187.633 54.2C190.966 45.6667 196.299 39.2667 203.633 35C210.966 30.7333 219.766 28.6 230.033 28.6V68.6C228.033 68.3333 226.233 68.1333 224.633 68C223.166 67.8667 221.633 67.8 220.033 67.8C213.233 67.8 207.633 69.6 203.233 73.2C198.966 76.6667 196.833 82.7333 196.833 91.4V140H151.633ZM299.667 142C287.267 142 276.267 139.6 266.667 134.8C257.201 129.867 249.734 123.133 244.267 114.6C238.801 106.067 236.067 96.2667 236.067 85.2C236.067 74.1333 238.801 64.3333 244.267 55.8C249.734 47.2667 257.201 40.6 266.667 35.8C276.267 31 287.267 28.6 299.667 28.6C312.067 28.6 323.067 31 332.667 35.8C342.267 40.6 349.734 47.2667 355.067 55.8C360.534 64.3333 363.267 74.1333 363.267 85.2C363.267 96.2667 360.534 106.067 355.067 114.6C349.734 123.133 342.267 129.867 332.667 134.8C323.067 139.6 312.067 142 299.667 142ZM299.667 106.8C303.001 106.8 306.001 106 308.667 104.4C311.334 102.8 313.467 100.4 315.067 97.2C316.667 93.8667 317.467 89.8667 317.467 85.2C317.467 80.4 316.667 76.4667 315.067 73.4C313.467 70.2 311.334 67.8 308.667 66.2C306.001 64.6 303.001 63.8 299.667 63.8C296.334 63.8 293.334 64.6 290.667 66.2C288.001 67.8 285.867 70.2 284.267 73.4C282.667 76.4667 281.867 80.4 281.867 85.2C281.867 89.8667 282.667 93.8667 284.267 97.2C285.867 100.4 288.001 102.8 290.667 104.4C293.334 106 296.334 106.8 299.667 106.8ZM422.014 52H484.414V86H422.014V52ZM425.214 104.4H495.214V140H378.814V-9.53674e-06H492.614V35.6H425.214V104.4ZM542.984 140L498.984 30.6H545.384L578.784 119.4H555.384L590.984 30.6H633.784L589.784 140H542.984ZM698.166 142C684.832 142 673.166 139.533 663.166 134.6C653.299 129.667 645.632 122.933 640.166 114.4C634.699 105.733 631.966 96 631.966 85.2C631.966 74.1333 634.632 64.3333 639.966 55.8C645.432 47.2667 652.832 40.6 662.166 35.8C671.632 31 682.232 28.6 693.966 28.6C704.766 28.6 714.699 30.7333 723.766 35C732.966 39.2667 740.299 45.6 745.766 54C751.366 62.4 754.166 72.8 754.166 85.2C754.166 86.8 754.099 88.6 753.966 90.6C753.832 92.4667 753.699 94.2 753.566 95.8H669.366V74H729.566L712.566 79.8C712.566 75.5333 711.766 71.9333 710.166 69C708.699 65.9333 706.632 63.6 703.966 62C701.299 60.2667 698.099 59.4 694.366 59.4C690.632 59.4 687.366 60.2667 684.566 62C681.899 63.6 679.832 65.9333 678.366 69C676.899 71.9333 676.166 75.5333 676.166 79.8V86.6C676.166 91.2667 677.099 95.2667 678.966 98.6C680.832 101.933 683.499 104.467 686.966 106.2C690.432 107.8 694.632 108.6 699.566 108.6C704.632 108.6 708.766 107.933 711.966 106.6C715.299 105.267 718.766 103.267 722.366 100.6L745.966 124.4C740.632 130.133 734.032 134.533 726.166 137.6C718.432 140.533 709.099 142 698.166 142ZM844.43 28.6C852.83 28.6 860.43 30.3333 867.23 33.8C874.03 37.1333 879.363 42.4 883.23 49.6C887.23 56.8 889.23 66.1333 889.23 77.6V140H844.03V85.4C844.03 78.6 842.83 73.8 840.43 71C838.03 68.0667 834.763 66.6 830.63 66.6C827.563 66.6 824.696 67.3333 822.03 68.8C819.496 70.1333 817.43 72.4 815.83 75.6C814.363 78.8 813.63 83.1333 813.63 88.6V140H768.43V30.6H811.43V62.6L802.83 53.4C807.096 45.1333 812.83 38.9333 820.03 34.8C827.363 30.6667 835.496 28.6 844.43 28.6ZM961.659 142C946.593 142 934.859 138.4 926.459 131.2C918.059 123.867 913.859 112.667 913.859 97.6V6H959.059V97.2C959.059 100.533 959.926 103.133 961.659 105C963.526 106.867 965.793 107.8 968.459 107.8C972.326 107.8 975.726 106.8 978.659 104.8L989.459 136.2C985.993 138.2 981.793 139.667 976.859 140.6C972.059 141.533 966.993 142 961.659 142ZM898.859 69.6V36.6H981.459V69.6H898.859ZM1055.72 142C1043.32 142 1032.32 139.6 1022.72 134.8C1013.26 129.867 1005.79 123.133 1000.32 114.6C994.855 106.067 992.122 96.2667 992.122 85.2C992.122 74.1333 994.855 64.3333 1000.32 55.8C1005.79 47.2667 1013.26 40.6 1022.72 35.8C1032.32 31 1043.32 28.6 1055.72 28.6C1068.12 28.6 1079.12 31 1088.72 35.8C1098.32 40.6 1105.79 47.2667 1111.12 55.8C1116.59 64.3333 1119.32 74.1333 1119.32 85.2C1119.32 96.2667 1116.59 106.067 1111.12 114.6C1105.79 123.133 1098.32 129.867 1088.72 134.8C1079.12 139.6 1068.12 142 1055.72 142ZM1055.72 106.8C1059.06 106.8 1062.06 106 1064.72 104.4C1067.39 102.8 1069.52 100.4 1071.12 97.2C1072.72 93.8667 1073.52 89.8667 1073.52 85.2C1073.52 80.4 1072.72 76.4667 1071.12 73.4C1069.52 70.2 1067.39 67.8 1064.72 66.2C1062.06 64.6 1059.06 63.8 1055.72 63.8C1052.39 63.8 1049.39 64.6 1046.72 66.2C1044.06 67.8 1041.92 70.2 1040.32 73.4C1038.72 76.4667 1037.92 80.4 1037.92 85.2C1037.92 89.8667 1038.72 93.8667 1040.32 97.2C1041.92 100.4 1044.06 102.8 1046.72 104.4C1049.39 106 1052.39 106.8 1055.72 106.8ZM1176.27 142C1166.94 142 1157.74 141 1148.67 139C1139.6 137 1132.27 134.4 1126.67 131.2L1139.07 101.4C1144.27 104.467 1150.27 106.867 1157.07 108.6C1164 110.333 1170.74 111.2 1177.27 111.2C1182.74 111.2 1186.4 110.733 1188.27 109.8C1190.27 108.867 1191.27 107.6 1191.27 106C1191.27 104.4 1190.14 103.267 1187.87 102.6C1185.6 101.8 1182.6 101.2 1178.87 100.8C1175.14 100.4 1171 99.9333 1166.47 99.4C1162.07 98.7333 1157.6 97.8 1153.07 96.6C1148.54 95.4 1144.4 93.6 1140.67 91.2C1136.94 88.8 1133.94 85.6 1131.67 81.6C1129.4 77.4667 1128.27 72.2667 1128.27 66C1128.27 59.0667 1130.34 52.8 1134.47 47.2C1138.74 41.6 1145 37.1333 1153.27 33.8C1161.67 30.3333 1172 28.6 1184.27 28.6C1192.27 28.6 1200.27 29.3333 1208.27 30.8C1216.27 32.2667 1223.14 34.5333 1228.87 37.6L1216.47 67.4C1210.87 64.3333 1205.34 62.2667 1199.87 61.2C1194.54 60 1189.54 59.4 1184.87 59.4C1179.14 59.4 1175.2 59.9333 1173.07 61C1171.07 62.0667 1170.07 63.2667 1170.07 64.6C1170.07 66.2 1171.2 67.4 1173.47 68.2C1175.74 69 1178.74 69.6 1182.47 70C1186.2 70.4 1190.27 70.9333 1194.67 71.6C1199.2 72.1333 1203.67 73.0667 1208.07 74.4C1212.6 75.6 1216.74 77.4 1220.47 79.8C1224.2 82.2 1227.2 85.4667 1229.47 89.6C1231.74 93.6 1232.87 98.7333 1232.87 105C1232.87 111.533 1230.8 117.667 1226.67 123.4C1222.54 129 1216.27 133.533 1207.87 137C1199.47 140.333 1188.94 142 1176.27 142Z" fill="white"/>
<path d="M4.4 140H1.4V143H4.4V140ZM4.4 -9.53674e-06V-3.00001H1.4V-9.53674e-06H4.4ZM105.6 6.39999L104.367 9.13503L104.374 9.13825L104.382 9.14143L105.6 6.39999ZM127.8 24.8L125.285 26.435L125.291 26.4446L125.297 26.4543L127.8 24.8ZM127.8 80.8L125.297 79.1457L125.297 79.1457L127.8 80.8ZM105.6 99.2L106.833 101.935L106.841 101.931L106.85 101.927L105.6 99.2ZM30.6 105.6L28.5203 103.438L23.1537 108.6H30.6V105.6ZM51.6 85.4H54.6V78.3517L49.5203 83.2379L51.6 85.4ZM51.6 140V143H54.6V140H51.6ZM51.6 90.6L49.4588 92.7012L54.6 97.9404V90.6H51.6ZM30.6 69.2V66.2H23.4529L28.4588 71.3012L30.6 69.2ZM83.2 64.8L81.1728 62.5885L81.1494 62.6101L81.1263 62.6321L83.2 64.8ZM83.2 40.8L81.1263 42.9679L81.1494 42.9899L81.1728 43.0115L83.2 40.8ZM30.6 36.4L28.4588 34.2988L23.4529 39.4H30.6V36.4ZM51.6 15H54.6V7.65962L49.4588 12.8988L51.6 15ZM7.4 140V-9.53674e-06H1.4V140H7.4ZM4.4 2.99999H71.8V-3.00001H4.4V2.99999ZM71.8 2.99999C84.548 2.99999 95.3746 5.08198 104.367 9.13503L106.833 3.66495C96.8921 -0.815327 85.1854 -3.00001 71.8 -3.00001V2.99999ZM104.382 9.14143C113.507 13.1972 120.433 18.9701 125.285 26.435L130.315 23.165C124.768 14.6299 116.893 8.13615 106.818 3.65856L104.382 9.14143ZM125.297 26.4543C130.128 33.7617 132.6 42.5004 132.6 52.8H138.6C138.6 41.4996 135.872 31.5716 130.303 23.1457L125.297 26.4543ZM132.6 52.8C132.6 63.0996 130.128 71.8383 125.297 79.1457L130.303 82.4543C135.872 74.0284 138.6 64.1004 138.6 52.8H132.6ZM125.297 79.1457C120.443 86.4902 113.503 92.2776 104.35 96.4728L106.85 101.927C116.897 97.3224 124.758 90.8431 130.303 82.4543L125.297 79.1457ZM104.367 96.465C95.3746 100.518 84.548 102.6 71.8 102.6V108.6C85.1854 108.6 96.8921 106.415 106.833 101.935L104.367 96.465ZM71.8 102.6H30.6V108.6H71.8V102.6ZM32.6797 107.762L53.6797 87.5621L49.5203 83.2379L28.5203 103.438L32.6797 107.762ZM48.6 85.4V140H54.6V85.4H48.6ZM51.6 137H4.4V143H51.6V137ZM53.7412 88.4988L32.7412 67.0988L28.4588 71.3012L49.4588 92.7012L53.7412 88.4988ZM30.6 72.2H68.8V66.2H30.6V72.2ZM68.8 72.2C75.701 72.2 81.4122 70.6615 85.2737 66.9679L81.1263 62.6321C78.8545 64.8052 74.9657 66.2 68.8 66.2V72.2ZM85.2272 67.0115C89.1521 63.4136 91 58.5537 91 52.8H85C85 57.1796 83.6479 60.3197 81.1728 62.5885L85.2272 67.0115ZM91 52.8C91 47.0463 89.1521 42.1864 85.2272 38.5885L81.1728 43.0115C83.6479 45.2803 85 48.4203 85 52.8H91ZM85.2737 38.6321C81.4122 34.9385 75.701 33.4 68.8 33.4V39.4C74.9657 39.4 78.8545 40.7948 81.1263 42.9679L85.2737 38.6321ZM68.8 33.4H30.6V39.4H68.8V33.4ZM32.7412 38.5012L53.7412 17.1012L49.4588 12.8988L28.4588 34.2988L32.7412 38.5012ZM48.6 15V90.6H54.6V15H48.6ZM151.633 140H148.633V143H151.633V140ZM151.633 30.6V27.6H148.633V30.6H151.633ZM194.633 30.6H197.633V27.6H194.633V30.6ZM194.633 63.6L192.227 65.3918L197.633 72.6514V63.6H194.633ZM187.633 54.2L184.838 53.1084L184.233 54.6577L185.227 55.9918L187.633 54.2ZM203.633 35L202.124 32.4069L202.124 32.4069L203.633 35ZM230.033 28.6H233.033V25.6H230.033V28.6ZM230.033 68.6L229.636 71.5737L233.033 72.0265V68.6H230.033ZM224.633 68L224.361 70.9877L224.372 70.9887L224.384 70.9896L224.633 68ZM203.233 73.2L205.125 75.5284L205.133 75.5219L203.233 73.2ZM196.833 140V143H199.833V140H196.833ZM154.633 140V30.6H148.633V140H154.633ZM151.633 33.6H194.633V27.6H151.633V33.6ZM191.633 30.6V63.6H197.633V30.6H191.633ZM197.039 61.8082L190.039 52.4082L185.227 55.9918L192.227 65.3918L197.039 61.8082ZM190.427 55.2915C193.535 47.3357 198.442 41.4909 205.141 37.593L202.124 32.4069C194.157 37.0425 188.397 43.9976 184.838 53.1084L190.427 55.2915ZM205.141 37.593C211.929 33.6438 220.185 31.6 230.033 31.6V25.6C219.347 25.6 210.003 27.8229 202.124 32.4069L205.141 37.593ZM227.033 28.6V68.6H233.033V28.6H227.033ZM230.429 65.6263C228.392 65.3547 226.542 65.1487 224.882 65.0104L224.384 70.9896C225.924 71.118 227.674 71.312 229.636 71.5737L230.429 65.6263ZM224.904 65.0123C223.34 64.8701 221.716 64.8 220.033 64.8V70.8C221.55 70.8 222.992 70.8632 224.361 70.9877L224.904 65.0123ZM220.033 64.8C212.682 64.8 206.369 66.7577 201.333 70.8781L205.133 75.5219C208.896 72.4423 213.784 70.8 220.033 70.8V64.8ZM201.341 70.8717C196.05 75.1708 193.833 82.3514 193.833 91.4H199.833C199.833 83.1153 201.883 78.1625 205.125 75.5283L201.341 70.8717ZM193.833 91.4V140H199.833V91.4H193.833ZM196.833 137H151.633V143H196.833V137ZM266.667 134.8L265.281 137.46L265.303 137.472L265.326 137.483L266.667 134.8ZM244.267 114.6L241.741 116.218L241.741 116.218L244.267 114.6ZM244.267 55.8L241.741 54.1817L241.741 54.1817L244.267 55.8ZM266.667 35.8L265.326 33.1167L265.318 33.1205L265.31 33.1243L266.667 35.8ZM332.667 35.8L331.326 38.4833L331.326 38.4833L332.667 35.8ZM355.067 55.8L352.523 57.39L352.532 57.4042L352.541 57.4183L355.067 55.8ZM355.067 114.6L352.541 112.982L352.532 112.996L352.523 113.01L355.067 114.6ZM332.667 134.8L334.009 137.483L334.024 137.476L334.038 137.468L332.667 134.8ZM308.667 104.4L307.124 101.828L307.124 101.828L308.667 104.4ZM315.067 97.2L317.75 98.5416L317.761 98.52L317.772 98.4982L315.067 97.2ZM315.067 73.4L312.384 74.7416L312.395 74.7648L312.407 74.7877L315.067 73.4ZM308.667 66.2L307.124 68.7725L307.124 68.7725L308.667 66.2ZM290.667 66.2L289.124 63.6275L289.124 63.6275L290.667 66.2ZM284.267 73.4L286.927 74.7877L286.939 74.7648L286.95 74.7416L284.267 73.4ZM284.267 97.2L281.563 98.4982L281.573 98.52L281.584 98.5416L284.267 97.2ZM290.667 104.4L289.124 106.972L289.124 106.972L290.667 104.4ZM299.667 139C287.661 139 277.132 136.678 268.009 132.117L265.326 137.483C275.402 142.522 286.874 145 299.667 145V139ZM268.054 132.14C259.026 127.435 251.962 121.05 246.793 112.982L241.741 116.218C247.505 125.216 255.376 132.299 265.281 137.46L268.054 132.14ZM246.793 112.982C241.664 104.976 239.067 95.7479 239.067 85.2H233.067C233.067 96.7854 235.937 107.158 241.741 116.218L246.793 112.982ZM239.067 85.2C239.067 74.6521 241.664 65.4244 246.793 57.4183L241.741 54.1817C235.937 63.2423 233.067 73.6145 233.067 85.2H239.067ZM246.793 57.4183C251.957 49.3571 259.011 43.0457 268.024 38.4757L265.31 33.1243C255.39 38.1543 247.51 45.1762 241.741 54.1817L246.793 57.4183ZM268.009 38.4833C277.132 33.9217 287.661 31.6 299.667 31.6V25.6C286.874 25.6 275.402 28.0783 265.326 33.1167L268.009 38.4833ZM299.667 31.6C311.674 31.6 322.202 33.9217 331.326 38.4833L334.009 33.1167C323.932 28.0783 312.461 25.6 299.667 25.6V31.6ZM331.326 38.4833C340.466 43.0535 347.502 49.3562 352.523 57.39L357.611 54.21C351.966 45.1771 344.068 38.1465 334.009 33.1167L331.326 38.4833ZM352.541 57.4183C357.67 65.4244 360.267 74.6521 360.267 85.2H366.267C366.267 73.6145 363.398 63.2423 357.593 54.1817L352.541 57.4183ZM360.267 85.2C360.267 95.7479 357.67 104.976 352.541 112.982L357.593 116.218C363.398 107.158 366.267 96.7854 366.267 85.2H360.267ZM352.523 113.01C347.497 121.051 340.451 127.427 331.296 132.132L334.038 137.468C344.083 132.306 351.97 125.215 357.611 116.19L352.523 113.01ZM331.326 132.117C322.202 136.678 311.674 139 299.667 139V145C312.461 145 323.932 142.522 334.009 137.483L331.326 132.117ZM299.667 109.8C303.504 109.8 307.044 108.872 310.211 106.972L307.124 101.828C304.957 103.128 302.497 103.8 299.667 103.8V109.8ZM310.211 106.972C313.437 105.037 315.935 102.173 317.75 98.5416L312.384 95.8584C311 98.6266 309.231 100.563 307.124 101.828L310.211 106.972ZM317.772 98.4982C319.61 94.6679 320.467 90.2017 320.467 85.2H314.467C314.467 89.5317 313.724 93.0655 312.363 95.9018L317.772 98.4982ZM320.467 85.2C320.467 80.0939 319.62 75.6408 317.727 72.0123L312.407 74.7877C313.714 77.2925 314.467 80.7061 314.467 85.2H320.467ZM317.75 72.0584C315.935 68.4266 313.437 65.5632 310.211 63.6275L307.124 68.7725C309.231 70.0368 311 71.9734 312.384 74.7416L317.75 72.0584ZM310.211 63.6275C307.044 61.7276 303.504 60.8 299.667 60.8V66.8C302.497 66.8 304.957 67.4724 307.124 68.7725L310.211 63.6275ZM299.667 60.8C295.831 60.8 292.29 61.7276 289.124 63.6275L292.211 68.7725C294.377 67.4724 296.837 66.8 299.667 66.8V60.8ZM289.124 63.6275C285.898 65.5632 283.4 68.4266 281.584 72.0584L286.95 74.7416C288.335 71.9734 290.103 70.0368 292.211 68.7725L289.124 63.6275ZM281.607 72.0123C279.714 75.6408 278.867 80.0939 278.867 85.2H284.867C284.867 80.7061 285.62 77.2925 286.927 74.7877L281.607 72.0123ZM278.867 85.2C278.867 90.2017 279.724 94.6679 281.563 98.4982L286.972 95.9018C285.61 93.0655 284.867 89.5317 284.867 85.2H278.867ZM281.584 98.5416C283.4 102.173 285.898 105.037 289.124 106.972L292.211 101.828C290.103 100.563 288.335 98.6266 286.95 95.8584L281.584 98.5416ZM289.124 106.972C292.29 108.872 295.831 109.8 299.667 109.8V103.8C296.837 103.8 294.377 103.128 292.211 101.828L289.124 106.972ZM422.014 52V49H419.014V52H422.014ZM484.414 52H487.414V49H484.414V52ZM484.414 86V89H487.414V86H484.414ZM422.014 86H419.014V89H422.014V86ZM425.214 104.4H422.214V107.4H425.214V104.4ZM495.214 104.4H498.214V101.4H495.214V104.4ZM495.214 140V143H498.214V140H495.214ZM378.814 140H375.814V143H378.814V140ZM378.814 -9.53674e-06V-3.00001H375.814V-9.53674e-06H378.814ZM492.614 -9.53674e-06H495.614V-3.00001H492.614V-9.53674e-06ZM492.614 35.6V38.6H495.614V35.6H492.614ZM425.214 35.6V32.6H422.214V35.6H425.214ZM422.014 55H484.414V49H422.014V55ZM481.414 52V86H487.414V52H481.414ZM484.414 83H422.014V89H484.414V83ZM425.014 86V52H419.014V86H425.014ZM425.214 107.4H495.214V101.4H425.214V107.4ZM492.214 104.4V140H498.214V104.4H492.214ZM495.214 137H378.814V143H495.214V137ZM381.814 140V-9.53674e-06H375.814V140H381.814ZM378.814 2.99999H492.614V-3.00001H378.814V2.99999ZM489.614 -9.53674e-06V35.6H495.614V-9.53674e-06H489.614ZM492.614 32.6H425.214V38.6H492.614V32.6ZM422.214 35.6V104.4H428.214V35.6H422.214ZM542.984 140L540.201 141.119L540.957 143H542.984V140ZM498.984 30.6V27.6H494.544L496.201 31.7194L498.984 30.6ZM545.384 30.6L548.192 29.5438L547.461 27.6H545.384V30.6ZM578.784 119.4V122.4H583.118L581.592 118.344L578.784 119.4ZM555.384 119.4L552.6 118.284L550.95 122.4H555.384V119.4ZM590.984 30.6V27.6H588.955L588.2 29.4837L590.984 30.6ZM633.784 30.6L636.568 31.7194L638.225 27.6H633.784V30.6ZM589.784 140V143H591.811L592.568 141.119L589.784 140ZM545.768 138.881L501.768 29.4806L496.201 31.7194L540.201 141.119L545.768 138.881ZM498.984 33.6H545.384V27.6H498.984V33.6ZM542.576 31.6561L575.976 120.456L581.592 118.344L548.192 29.5438L542.576 31.6561ZM578.784 116.4H555.384V122.4H578.784V116.4ZM558.169 120.516L593.769 31.7163L588.2 29.4837L552.6 118.284L558.169 120.516ZM590.984 33.6H633.784V27.6H590.984V33.6ZM631.001 29.4806L587.001 138.881L592.568 141.119L636.568 31.7194L631.001 29.4806ZM589.784 137H542.984V143H589.784V137ZM663.166 134.6L661.824 137.283L661.831 137.287L661.838 137.29L663.166 134.6ZM640.166 114.4L637.628 116.001L637.634 116.009L637.64 116.018L640.166 114.4ZM639.966 55.8L637.44 54.1817L637.431 54.1958L637.422 54.21L639.966 55.8ZM662.166 35.8L660.809 33.1243L660.801 33.1282L660.794 33.1321L662.166 35.8ZM723.766 35L722.488 37.7144L722.496 37.718L722.503 37.7216L723.766 35ZM745.766 54L743.251 55.6364L743.26 55.6503L743.269 55.6641L745.766 54ZM753.966 90.6L756.958 90.8137L756.959 90.8066L756.959 90.7996L753.966 90.6ZM753.566 95.8V98.8H756.326L756.555 96.0491L753.566 95.8ZM669.366 95.8H666.366V98.8H669.366V95.8ZM669.366 74V71H666.366V74H669.366ZM729.566 74L730.534 76.8393L729.566 71V74ZM712.566 79.8H709.566V83.9933L713.534 82.6393L712.566 79.8ZM710.166 69L707.459 70.2944L707.494 70.3664L707.532 70.4366L710.166 69ZM703.966 62L702.331 64.5153L702.376 64.5447L702.422 64.5725L703.966 62ZM684.566 62L686.109 64.5725L686.127 64.5618L686.145 64.5508L684.566 62ZM678.366 69L681.049 70.3416L681.061 70.3181L681.072 70.2944L678.366 69ZM678.966 98.6L681.583 97.1342L681.583 97.1342L678.966 98.6ZM686.966 106.2L685.624 108.883L685.666 108.904L685.708 108.924L686.966 106.2ZM711.966 106.6L710.851 103.815L710.832 103.823L710.812 103.831L711.966 106.6ZM722.366 100.6L724.496 98.4876L722.667 96.6433L720.58 98.1893L722.366 100.6ZM745.966 124.4L748.162 126.443L750.125 124.334L748.096 122.288L745.966 124.4ZM726.166 137.6L727.23 140.405L727.242 140.4L727.255 140.395L726.166 137.6ZM698.166 139C685.203 139 674.007 136.603 664.493 131.91L661.838 137.29C672.324 142.463 684.461 145 698.166 145V139ZM664.507 131.917C655.08 127.203 647.841 120.82 642.692 112.782L637.64 116.018C643.423 125.047 651.518 132.13 661.824 137.283L664.507 131.917ZM642.703 112.799C637.555 104.638 634.966 95.4656 634.966 85.2H628.966C628.966 96.5344 631.843 106.828 637.628 116.001L642.703 112.799ZM634.966 85.2C634.966 74.6376 637.504 65.3996 642.51 57.39L637.422 54.21C631.761 63.2671 628.966 73.6291 628.966 85.2H634.966ZM642.492 57.4183C647.663 49.3467 654.657 43.0349 663.538 38.4679L660.794 33.1321C651.007 38.1651 643.202 45.1866 637.44 54.1817L642.492 57.4183ZM663.522 38.4757C672.526 33.9106 682.653 31.6 693.966 31.6V25.6C681.811 25.6 670.739 28.0894 660.809 33.1243L663.522 38.4757ZM693.966 31.6C704.359 31.6 713.852 33.6502 722.488 37.7144L725.043 32.2855C715.546 27.8165 705.172 25.6 693.966 25.6V31.6ZM722.503 37.7216C731.199 41.7542 738.096 47.7144 743.251 55.6364L748.28 52.3636C742.502 43.4856 734.732 36.7791 725.028 32.2784L722.503 37.7216ZM743.269 55.6641C748.473 63.469 751.166 73.2561 751.166 85.2H757.166C757.166 72.3439 754.259 61.331 748.262 52.3359L743.269 55.6641ZM751.166 85.2C751.166 86.7193 751.102 88.4511 750.972 90.4004L756.959 90.7996C757.096 88.7489 757.166 86.8807 757.166 85.2H751.166ZM750.973 90.3863C750.841 92.243 750.708 93.9644 750.576 95.5508L756.555 96.0491C756.69 94.4356 756.824 92.6903 756.958 90.8137L750.973 90.3863ZM753.566 92.8H669.366V98.8H753.566V92.8ZM672.366 95.8V74H666.366V95.8H672.366ZM669.366 77H729.566V71H669.366V77ZM728.597 71.1607L711.597 76.9607L713.534 82.6393L730.534 76.8393L728.597 71.1607ZM715.566 79.8C715.566 75.1671 714.697 71.043 712.799 67.5634L707.532 70.4366C708.834 72.8237 709.566 75.8995 709.566 79.8H715.566ZM712.872 67.7056C711.176 64.1596 708.727 61.3584 705.509 59.4275L702.422 64.5725C704.537 65.8416 706.222 67.707 707.459 70.2944L712.872 67.7056ZM705.601 59.4847C702.368 57.3833 698.577 56.4 694.366 56.4V62.4C697.621 62.4 700.23 63.15 702.331 64.5153L705.601 59.4847ZM694.366 56.4C690.151 56.4 686.322 57.3844 682.987 59.4492L686.145 64.5508C688.409 63.1489 691.114 62.4 694.366 62.4V56.4ZM683.022 59.4275C679.804 61.3584 677.355 64.1596 675.659 67.7056L681.072 70.2944C682.309 67.707 683.994 65.8416 686.109 64.5725L683.022 59.4275ZM675.682 67.6584C673.954 71.1143 673.166 75.2027 673.166 79.8H679.166C679.166 75.8639 679.844 72.7524 681.049 70.3416L675.682 67.6584ZM673.166 79.8V86.6H679.166V79.8H673.166ZM673.166 86.6C673.166 91.6671 674.181 96.1955 676.348 100.066L681.583 97.1342C680.017 94.3378 679.166 90.8663 679.166 86.6H673.166ZM676.348 100.066C678.513 103.932 681.628 106.885 685.624 108.883L688.307 103.517C685.37 102.048 683.152 99.935 681.583 97.1342L676.348 100.066ZM685.708 108.924C689.667 110.751 694.32 111.6 699.566 111.6V105.6C694.945 105.6 691.198 104.849 688.223 103.476L685.708 108.924ZM699.566 111.6C704.861 111.6 709.426 110.908 713.119 109.369L710.812 103.831C708.105 104.958 704.403 105.6 699.566 105.6V111.6ZM713.08 109.385C716.703 107.936 720.393 105.794 724.151 103.011L720.58 98.1893C717.138 100.739 713.895 102.597 710.851 103.815L713.08 109.385ZM720.235 102.712L743.835 126.512L748.096 122.288L724.496 98.4876L720.235 102.712ZM743.769 122.357C738.767 127.734 732.555 131.889 725.076 134.805L727.255 140.395C735.509 137.177 742.498 132.533 748.162 126.443L743.769 122.357ZM725.102 134.795C717.798 137.565 708.846 139 698.166 139V145C709.352 145 719.066 143.501 727.23 140.405L725.102 134.795ZM867.23 33.8L865.867 36.4727L865.888 36.4834L865.909 36.4938L867.23 33.8ZM883.23 49.6L880.587 51.0194L880.597 51.0382L880.607 51.0569L883.23 49.6ZM889.23 140V143H892.23V140H889.23ZM844.03 140H841.03V143H844.03V140ZM840.43 71L838.108 72.8997L838.13 72.9263L838.152 72.9524L840.43 71ZM822.03 68.8L823.427 71.4548L823.451 71.4419L823.475 71.4286L822.03 68.8ZM815.83 75.6L813.146 74.2584L813.124 74.3038L813.102 74.35L815.83 75.6ZM813.63 140V143H816.63V140H813.63ZM768.43 140H765.43V143H768.43V140ZM768.43 30.6V27.6H765.43V30.6H768.43ZM811.43 30.6H814.43V27.6H811.43V30.6ZM811.43 62.6L809.238 64.6486L814.43 70.2024V62.6H811.43ZM802.83 53.4L800.164 52.0241L799.194 53.9035L800.638 55.4486L802.83 53.4ZM820.03 34.8L818.557 32.1865L818.546 32.1923L818.536 32.1982L820.03 34.8ZM844.43 31.6C852.404 31.6 859.53 33.2421 865.867 36.4727L868.592 31.1273C861.329 27.4245 853.255 25.6 844.43 25.6V31.6ZM865.909 36.4938C872.101 39.5288 876.992 44.3258 880.587 51.0194L885.873 48.1806C881.734 40.4742 875.959 34.7379 868.55 31.1062L865.909 36.4938ZM880.607 51.0569C884.281 57.6705 886.23 66.4534 886.23 77.6H892.23C892.23 65.8132 890.178 55.9295 885.852 48.1431L880.607 51.0569ZM886.23 77.6V140H892.23V77.6H886.23ZM889.23 137H844.03V143H889.23V137ZM847.03 140V85.4H841.03V140H847.03ZM847.03 85.4C847.03 78.4181 845.832 72.6924 842.707 69.0476L838.152 72.9524C839.828 74.9076 841.03 78.7819 841.03 85.4H847.03ZM842.752 69.1003C839.725 65.4017 835.57 63.6 830.63 63.6V69.6C833.956 69.6 836.334 70.7316 838.108 72.8997L842.752 69.1003ZM830.63 63.6C827.062 63.6 823.697 64.4591 820.584 66.1714L823.475 71.4286C825.696 70.2075 828.064 69.6 830.63 69.6V63.6ZM820.632 66.1452C817.418 67.8369 814.956 70.6385 813.146 74.2584L818.513 76.9416C819.903 74.1615 821.574 72.4297 823.427 71.4548L820.632 66.1452ZM813.102 74.35C811.384 78.099 810.63 82.9162 810.63 88.6H816.63C816.63 83.3505 817.342 79.501 818.557 76.85L813.102 74.35ZM810.63 88.6V140H816.63V88.6H810.63ZM813.63 137H768.43V143H813.63V137ZM771.43 140V30.6H765.43V140H771.43ZM768.43 33.6H811.43V27.6H768.43V33.6ZM808.43 30.6V62.6H814.43V30.6H808.43ZM813.621 60.5513L805.021 51.3513L800.638 55.4486L809.238 64.6486L813.621 60.5513ZM805.496 54.7759C809.53 46.9583 814.883 41.214 821.523 37.4018L818.536 32.1982C810.777 36.6527 804.662 43.3084 800.164 52.0241L805.496 54.7759ZM821.503 37.4135C828.359 33.5491 835.98 31.6 844.43 31.6V25.6C835.013 25.6 826.367 27.7842 818.557 32.1865L821.503 37.4135ZM926.459 131.2L924.486 133.46L924.497 133.469L924.507 133.478L926.459 131.2ZM913.859 6V3H910.859V6H913.859ZM959.059 6H962.059V3H959.059V6ZM961.659 105L959.461 107.041L959.499 107.082L959.538 107.121L961.659 105ZM978.659 104.8L981.496 103.824L980.218 100.107L976.969 102.321L978.659 104.8ZM989.459 136.2L990.959 138.799L993.101 137.563L992.296 135.224L989.459 136.2ZM976.859 140.6L976.302 137.652L976.294 137.654L976.287 137.655L976.859 140.6ZM898.859 69.6H895.859V72.6H898.859V69.6ZM898.859 36.6V33.6H895.859V36.6H898.859ZM981.459 36.6H984.459V33.6H981.459V36.6ZM981.459 69.6V72.6H984.459V69.6H981.459ZM961.659 139C947.049 139 936.099 135.511 928.412 128.922L924.507 133.478C933.62 141.289 946.136 145 961.659 145V139ZM928.432 128.94C920.892 122.358 916.859 112.12 916.859 97.6H910.859C910.859 113.213 915.226 125.376 924.486 133.46L928.432 128.94ZM916.859 97.6V6H910.859V97.6H916.859ZM913.859 9H959.059V3H913.859V9ZM956.059 6V97.2H962.059V6H956.059ZM956.059 97.2C956.059 101.05 957.069 104.466 959.461 107.041L963.858 102.959C962.783 101.801 962.059 100.016 962.059 97.2H956.059ZM959.538 107.121C961.974 109.557 965.006 110.8 968.459 110.8V104.8C966.579 104.8 965.078 104.176 963.781 102.879L959.538 107.121ZM968.459 110.8C972.873 110.8 976.873 109.649 980.349 107.279L976.969 102.321C974.579 103.951 971.779 104.8 968.459 104.8V110.8ZM975.822 105.776L986.622 137.176L992.296 135.224L981.496 103.824L975.822 105.776ZM987.96 133.601C984.849 135.396 980.985 136.766 976.302 137.652L977.417 143.548C982.601 142.567 987.136 141.004 990.959 138.799L987.96 133.601ZM976.287 137.655C971.692 138.549 966.818 139 961.659 139V145C967.168 145 972.427 144.518 977.432 143.545L976.287 137.655ZM901.859 69.6V36.6H895.859V69.6H901.859ZM898.859 39.6H981.459V33.6H898.859V39.6ZM978.459 36.6V69.6H984.459V36.6H978.459ZM981.459 66.6H898.859V72.6H981.459V66.6ZM1022.72 134.8L1021.34 137.46L1021.36 137.472L1021.38 137.483L1022.72 134.8ZM1000.32 114.6L997.796 116.218L997.796 116.218L1000.32 114.6ZM1000.32 55.8L997.796 54.1817L997.796 54.1817L1000.32 55.8ZM1022.72 35.8L1021.38 33.1167L1021.37 33.1205L1021.37 33.1243L1022.72 35.8ZM1088.72 35.8L1087.38 38.4833L1087.38 38.4833L1088.72 35.8ZM1111.12 55.8L1108.58 57.39L1108.59 57.4042L1108.6 57.4183L1111.12 55.8ZM1111.12 114.6L1108.6 112.982L1108.59 112.996L1108.58 113.01L1111.12 114.6ZM1088.72 134.8L1090.06 137.483L1090.08 137.476L1090.09 137.468L1088.72 134.8ZM1064.72 104.4L1063.18 101.828L1063.18 101.828L1064.72 104.4ZM1071.12 97.2L1073.81 98.5416L1073.82 98.52L1073.83 98.4982L1071.12 97.2ZM1071.12 73.4L1068.44 74.7416L1068.45 74.7648L1068.46 74.7877L1071.12 73.4ZM1064.72 66.2L1063.18 68.7725L1063.18 68.7725L1064.72 66.2ZM1046.72 66.2L1045.18 63.6275L1045.18 63.6275L1046.72 66.2ZM1040.32 73.4L1042.98 74.7877L1042.99 74.7648L1043.01 74.7416L1040.32 73.4ZM1040.32 97.2L1037.62 98.4982L1037.63 98.52L1037.64 98.5416L1040.32 97.2ZM1046.72 104.4L1045.18 106.972L1045.18 106.972L1046.72 104.4ZM1055.72 139C1043.72 139 1033.19 136.678 1024.06 132.117L1021.38 137.483C1031.46 142.522 1042.93 145 1055.72 145V139ZM1024.11 132.14C1015.08 127.435 1008.02 121.05 1002.85 112.982L997.796 116.218C1003.56 125.216 1011.43 132.299 1021.34 137.46L1024.11 132.14ZM1002.85 112.982C997.719 104.976 995.122 95.7479 995.122 85.2H989.122C989.122 96.7854 991.991 107.158 997.796 116.218L1002.85 112.982ZM995.122 85.2C995.122 74.6521 997.719 65.4244 1002.85 57.4183L997.796 54.1817C991.991 63.2423 989.122 73.6145 989.122 85.2H995.122ZM1002.85 57.4183C1008.01 49.3571 1015.07 43.0457 1024.08 38.4757L1021.37 33.1243C1011.44 38.1543 1003.56 45.1762 997.796 54.1817L1002.85 57.4183ZM1024.06 38.4833C1033.19 33.9217 1043.72 31.6 1055.72 31.6V25.6C1042.93 25.6 1031.46 28.0783 1021.38 33.1167L1024.06 38.4833ZM1055.72 31.6C1067.73 31.6 1078.26 33.9217 1087.38 38.4833L1090.06 33.1167C1079.99 28.0783 1068.52 25.6 1055.72 25.6V31.6ZM1087.38 38.4833C1096.52 43.0535 1103.56 49.3562 1108.58 57.39L1113.67 54.21C1108.02 45.1771 1100.12 38.1465 1090.06 33.1167L1087.38 38.4833ZM1108.6 57.4183C1113.72 65.4244 1116.32 74.6521 1116.32 85.2H1122.32C1122.32 73.6145 1119.45 63.2423 1113.65 54.1817L1108.6 57.4183ZM1116.32 85.2C1116.32 95.7479 1113.72 104.976 1108.6 112.982L1113.65 116.218C1119.45 107.158 1122.32 96.7854 1122.32 85.2H1116.32ZM1108.58 113.01C1103.55 121.051 1096.51 127.427 1087.35 132.132L1090.09 137.468C1100.14 132.306 1108.03 125.215 1113.67 116.19L1108.58 113.01ZM1087.38 132.117C1078.26 136.678 1067.73 139 1055.72 139V145C1068.52 145 1079.99 142.522 1090.06 137.483L1087.38 132.117ZM1055.72 109.8C1059.56 109.8 1063.1 108.872 1066.27 106.972L1063.18 101.828C1061.01 103.128 1058.55 103.8 1055.72 103.8V109.8ZM1066.27 106.972C1069.49 105.037 1071.99 102.173 1073.81 98.5416L1068.44 95.8584C1067.05 98.6266 1065.29 100.563 1063.18 101.828L1066.27 106.972ZM1073.83 98.4982C1075.67 94.6679 1076.52 90.2017 1076.52 85.2H1070.52C1070.52 89.5317 1069.78 93.0655 1068.42 95.9018L1073.83 98.4982ZM1076.52 85.2C1076.52 80.0939 1075.67 75.6408 1073.78 72.0123L1068.46 74.7877C1069.77 77.2925 1070.52 80.7061 1070.52 85.2H1076.52ZM1073.81 72.0584C1071.99 68.4266 1069.49 65.5632 1066.27 63.6275L1063.18 68.7725C1065.29 70.0368 1067.05 71.9734 1068.44 74.7416L1073.81 72.0584ZM1066.27 63.6275C1063.1 61.7276 1059.56 60.8 1055.72 60.8V66.8C1058.55 66.8 1061.01 67.4724 1063.18 68.7725L1066.27 63.6275ZM1055.72 60.8C1051.89 60.8 1048.34 61.7276 1045.18 63.6275L1048.27 68.7725C1050.43 67.4724 1052.89 66.8 1055.72 66.8V60.8ZM1045.18 63.6275C1041.95 65.5632 1039.45 68.4266 1037.64 72.0584L1043.01 74.7416C1044.39 71.9734 1046.16 70.0368 1048.27 68.7725L1045.18 63.6275ZM1037.66 72.0123C1035.77 75.6408 1034.92 80.0939 1034.92 85.2H1040.92C1040.92 80.7061 1041.67 77.2925 1042.98 74.7877L1037.66 72.0123ZM1034.92 85.2C1034.92 90.2017 1035.78 94.6679 1037.62 98.4982L1043.03 95.9018C1041.66 93.0655 1040.92 89.5317 1040.92 85.2H1034.92ZM1037.64 98.5416C1039.45 102.173 1041.95 105.037 1045.18 106.972L1048.27 101.828C1046.16 100.563 1044.39 98.6266 1043.01 95.8584L1037.64 98.5416ZM1045.18 106.972C1048.34 108.872 1051.89 109.8 1055.72 109.8V103.8C1052.89 103.8 1050.43 103.128 1048.27 101.828L1045.18 106.972ZM1148.67 139L1148.02 141.93L1148.67 139ZM1126.67 131.2L1123.9 130.047L1122.88 132.491L1125.18 133.805L1126.67 131.2ZM1139.07 101.4L1140.59 98.8159L1137.62 97.0647L1136.3 100.247L1139.07 101.4ZM1157.07 108.6L1156.33 111.507L1156.34 111.51L1157.07 108.6ZM1188.27 109.8L1187 107.081L1186.96 107.099L1186.93 107.117L1188.27 109.8ZM1187.87 102.6L1186.87 105.429L1186.95 105.456L1187.02 105.478L1187.87 102.6ZM1166.47 99.4L1166.02 102.366L1166.07 102.374L1166.12 102.379L1166.47 99.4ZM1153.07 96.6L1152.3 99.5001L1152.3 99.5001L1153.07 96.6ZM1140.67 91.2L1139.05 93.7235L1139.05 93.7235L1140.67 91.2ZM1131.67 81.6L1129.04 83.0425L1129.05 83.0608L1129.06 83.079L1131.67 81.6ZM1134.47 47.2L1132.08 45.3819L1132.07 45.4L1132.06 45.4184L1134.47 47.2ZM1153.27 33.8L1154.39 36.5823L1154.4 36.5778L1154.41 36.5731L1153.27 33.8ZM1208.27 30.8L1207.73 33.7508L1207.73 33.7508L1208.27 30.8ZM1228.87 37.6L1231.64 38.7525L1232.68 36.2388L1230.28 34.9546L1228.87 37.6ZM1216.47 67.4L1215.03 70.0313L1217.96 71.6348L1219.24 68.5525L1216.47 67.4ZM1199.87 61.2L1199.21 64.1268L1199.25 64.1362L1199.29 64.1445L1199.87 61.2ZM1173.07 61L1171.73 58.3167L1171.69 58.3344L1171.66 58.3529L1173.07 61ZM1173.47 68.2L1174.47 65.371L1174.47 65.371L1173.47 68.2ZM1182.47 70L1182.79 67.0171L1182.79 67.0171L1182.47 70ZM1194.67 71.6L1194.22 74.5661L1194.27 74.5736L1194.32 74.5795L1194.67 71.6ZM1208.07 74.4L1207.2 77.2711L1207.25 77.2865L1207.3 77.3001L1208.07 74.4ZM1220.47 79.8L1222.09 77.2765L1222.09 77.2765L1220.47 79.8ZM1229.47 89.6L1226.84 91.0425L1226.85 91.0608L1226.86 91.079L1229.47 89.6ZM1226.67 123.4L1229.08 125.182L1229.09 125.168L1229.1 125.154L1226.67 123.4ZM1207.87 137L1208.98 139.788L1208.99 139.781L1209.01 139.773L1207.87 137ZM1176.27 139C1167.15 139 1158.17 138.023 1149.31 136.07L1148.02 141.93C1157.3 143.977 1166.72 145 1176.27 145V139ZM1149.31 136.07C1140.43 134.11 1133.41 131.595 1128.16 128.595L1125.18 133.805C1131.13 137.205 1138.78 139.89 1148.02 141.93L1149.31 136.07ZM1129.44 132.353L1141.84 102.553L1136.3 100.247L1123.9 130.047L1129.44 132.353ZM1137.54 103.984C1143.03 107.216 1149.3 109.715 1156.33 111.507L1157.81 105.693C1151.24 104.019 1145.51 101.717 1140.59 98.8159L1137.54 103.984ZM1156.34 111.51C1163.49 113.298 1170.47 114.2 1177.27 114.2V108.2C1171 108.2 1164.51 107.369 1157.8 105.69L1156.34 111.51ZM1177.27 114.2C1180.07 114.2 1182.49 114.081 1184.5 113.826C1186.45 113.578 1188.23 113.175 1189.61 112.483L1186.93 107.117C1186.44 107.358 1185.45 107.656 1183.74 107.874C1182.08 108.086 1179.93 108.2 1177.27 108.2V114.2ZM1189.54 112.519C1192.12 111.311 1194.27 109.207 1194.27 106H1188.27C1188.27 106.119 1188.25 106.182 1188.16 106.291C1188.04 106.448 1187.72 106.744 1187 107.081L1189.54 112.519ZM1194.27 106C1194.27 104.403 1193.67 102.957 1192.54 101.829C1191.49 100.778 1190.12 100.135 1188.72 99.7219L1187.02 105.478C1187.89 105.732 1188.21 105.988 1188.3 106.071C1188.33 106.1 1188.31 106.088 1188.29 106.037C1188.26 105.985 1188.27 105.962 1188.27 106H1194.27ZM1188.87 99.771C1186.29 98.863 1183.04 98.2297 1179.19 97.8171L1178.55 103.783C1182.16 104.17 1184.91 104.737 1186.87 105.429L1188.87 99.771ZM1179.19 97.8171C1175.47 97.4184 1171.34 96.9529 1166.82 96.4205L1166.12 102.379C1170.66 102.914 1174.8 103.382 1178.55 103.783L1179.19 97.8171ZM1166.92 96.4339C1162.63 95.7843 1158.27 94.8736 1153.84 93.6999L1152.3 99.5001C1156.93 100.726 1161.51 101.682 1166.02 102.366L1166.92 96.4339ZM1153.84 93.6999C1149.59 92.5755 1145.75 90.8977 1142.29 88.6765L1139.05 93.7235C1143.06 96.3023 1147.48 98.2245 1152.3 99.5001L1153.84 93.6999ZM1142.29 88.6765C1138.98 86.549 1136.31 83.7136 1134.28 80.121L1129.06 83.079C1131.56 87.4864 1134.89 91.051 1139.05 93.7235L1142.29 88.6765ZM1134.3 80.1575C1132.34 76.5881 1131.27 71.9225 1131.27 66H1125.27C1125.27 72.6109 1126.46 78.3452 1129.04 83.0425L1134.3 80.1575ZM1131.27 66C1131.27 59.7106 1133.13 54.0678 1136.88 48.9816L1132.06 45.4184C1127.54 51.5322 1125.27 58.4227 1125.27 66H1131.27ZM1136.86 49.0181C1140.72 43.9476 1146.49 39.7668 1154.39 36.5823L1152.15 31.0177C1143.51 34.4998 1136.75 39.2524 1132.08 45.3819L1136.86 49.0181ZM1154.41 36.5731C1162.35 33.2987 1172.27 31.6 1184.27 31.6V25.6C1171.74 25.6 1160.99 27.3679 1152.12 31.0269L1154.41 36.5731ZM1184.27 31.6C1192.08 31.6 1199.9 32.3163 1207.73 33.7508L1208.81 27.8492C1200.63 26.3503 1192.45 25.6 1184.27 25.6V31.6ZM1207.73 33.7508C1215.5 35.1749 1222.05 37.3565 1227.45 40.2453L1230.28 34.9546C1224.22 31.7102 1217.04 29.3584 1208.81 27.8492L1207.73 33.7508ZM1226.1 36.4475L1213.7 66.2475L1219.24 68.5525L1231.64 38.7525L1226.1 36.4475ZM1217.91 64.7687C1212.08 61.575 1206.25 59.3893 1200.44 58.2555L1199.29 64.1445C1204.42 65.144 1209.66 67.0917 1215.03 70.0313L1217.91 64.7687ZM1200.53 58.2732C1195.01 57.0326 1189.79 56.4 1184.87 56.4V62.4C1189.28 62.4 1194.06 62.9674 1199.21 64.1268L1200.53 58.2732ZM1184.87 56.4C1181.92 56.4 1179.36 56.5364 1177.22 56.8272C1175.11 57.1128 1173.22 57.5704 1171.73 58.3167L1174.41 63.6833C1175.05 63.363 1176.2 63.0205 1178.02 62.7728C1179.81 62.5302 1182.08 62.4 1184.87 62.4V56.4ZM1171.66 58.3529C1169.39 59.5601 1167.07 61.5341 1167.07 64.6H1173.07C1173.07 64.752 1172.99 64.7785 1173.12 64.6205C1173.29 64.4203 1173.68 64.0734 1174.48 63.6471L1171.66 58.3529ZM1167.07 64.6C1167.07 66.1924 1167.66 67.6225 1168.74 68.7599C1169.75 69.8284 1171.08 70.5374 1172.47 71.029L1174.47 65.371C1173.59 65.0626 1173.22 64.7716 1173.1 64.6401C1173.05 64.5863 1173.05 64.5726 1173.06 64.5994C1173.07 64.6279 1173.07 64.6374 1173.07 64.6H1167.07ZM1172.47 71.029C1175.04 71.937 1178.3 72.5703 1182.15 72.9829L1182.79 67.0171C1179.17 66.6297 1176.43 66.063 1174.47 65.371L1172.47 71.029ZM1182.15 72.9829C1185.83 73.3775 1189.85 73.9049 1194.22 74.5661L1195.12 68.6339C1190.68 67.9618 1186.57 67.4225 1182.79 67.0171L1182.15 72.9829ZM1194.32 74.5795C1198.67 75.0919 1202.97 75.9888 1207.2 77.2711L1208.94 71.5289C1204.37 70.1446 1199.73 69.1747 1195.02 68.6205L1194.32 74.5795ZM1207.3 77.3001C1211.55 78.4245 1215.39 80.1023 1218.85 82.3235L1222.09 77.2765C1218.08 74.6977 1213.66 72.7755 1208.84 71.4999L1207.3 77.3001ZM1218.85 82.3235C1222.13 84.4361 1224.8 87.3198 1226.84 91.0425L1232.1 88.1575C1229.61 83.6135 1226.27 79.9639 1222.09 77.2765L1218.85 82.3235ZM1226.86 91.079C1228.79 94.4935 1229.87 99.0715 1229.87 105H1235.87C1235.87 98.3952 1234.68 92.7065 1232.08 88.121L1226.86 91.079ZM1229.87 105C1229.87 110.851 1228.03 116.379 1224.24 121.646L1229.1 125.154C1233.57 118.954 1235.87 112.215 1235.87 105H1229.87ZM1224.26 121.618C1220.53 126.663 1214.77 130.907 1206.72 134.227L1209.01 139.773C1217.77 136.16 1224.54 131.337 1229.08 125.182L1224.26 121.618ZM1206.76 134.212C1198.83 137.361 1188.7 139 1176.27 139V145C1189.17 145 1200.11 143.306 1208.98 139.788L1206.76 134.212Z" fill="black"/>
</g>
<defs>
<filter id="filter0_d_267_3" x="0.399902" y="0" width="1236.47" height="150" filterUnits="userSpaceOnUse" color-interpolation-filters="sRGB">
<feFlood flood-opacity="0" result="BackgroundImageFix"/>
<feColorMatrix in="SourceAlpha" type="matrix" values="0 0 0 0 0 0 0 0 0 0 0 0 0 0 0 0 0 0 127 0" result="hardAlpha"/>
<feOffset dy="4"/>
<feGaussianBlur stdDeviation="2"/>
<feComposite in2="hardAlpha" operator="out"/>
<feColorMatrix type="matrix" values="0 0 0 0 0 0 0 0 0 0 0 0 0 0 0 0 0 0 0.25 0"/>
<feBlend mode="normal" in2="BackgroundImageFix" result="effect1_dropShadow_267_3"/>
<feBlend mode="normal" in="SourceGraphic" in2="effect1_dropShadow_267_3" result="shape"/>
</filter>
</defs>
</svg>
