<svg width="448" height="512" viewBox="0 0 448 512" fill="none" xmlns="http://www.w3.org/2000/svg">
<path d="M32 464C32 490.5 53.5 512 80 512H368C394.5 512 416 490.5 416 464V128H32V464ZM304 208C304 199.1 311.1 192 320 192C328.9 192 336 199.125 336 208V432C336 440.875 328.875 448 320 448C311.125 448 304 440.875 304 432V208ZM208 208C208 199.1 215.1 192 224 192C232.9 192 240 199.125 240 208V432C240 440.875 232.875 448 224 448C215.125 448 208 440.875 208 432V208ZM112 208C112 199.1 119.1 192 128 192C136.9 192 144 199.125 144 208V432C144 440.9 136.9 448 128 448C119.1 448 112 440.875 112 432V208ZM432 32.0001H320L308.42 8.84009C305.711 3.42009 300.17 -0.00390625 294.11 -0.00390625H153.9C147.839 -0.00390625 142.3 3.42009 139.59 8.84009L128 32.0001H16C7.164 32.0001 0 39.1621 0 48.0001V80.0001C0 88.8361 7.164 96.0001 16 96.0001H432C440.838 96.0001 448 88.8361 448 80.0001V48.0001C448 39.1601 440.8 32.0001 432 32.0001Z" fill="white"/>
</svg>
